<svg xmlns="http://www.w3.org/2000/svg" width="36" height="36" viewBox="0 0 36 36"><path fill-rule="evenodd" clip-rule="evenodd" fill="#00A9BE" d="M13.929 11.218h8.213c0-1.318-.01-2.602.003-3.884.012-1.107.225-2.172.72-3.175 1.313-2.659 3.928-4.013 6.426-3.82 3.18.246 5.633 2.233 6.223 5.184.83 4.146-1.402 7.879-5.318 8.784-1.273.293-2.65.15-3.98.172-1.437.023-1.437.005-1.437 1.412v6.219c.365 0 .679-.012.992.002 1.585.07 3.208-.045 4.745.267 2.676.542 4.488 2.31 4.999 4.97.729 3.791-.85 7.167-4.907 8.11-4.26.989-7.762-1.463-8.346-5.68-.188-1.353-.089-2.745-.119-4.119v-.87h-8.213l-.001.727c-.039 1.544.049 3.105-.149 4.629-.34 2.609-2.438 4.885-5.016 5.358-4.788.881-8.176-2.104-8.413-6.399-.191-3.471 2.532-6.553 6.002-6.883 1.301-.124 2.618-.08 3.928-.11l.951-.001v-8.213h-4.055c-2.102-.001-3.868-.79-5.202-2.4-1.704-2.053-2.126-4.395-1.13-6.878.981-2.446 2.843-3.857 5.476-4.228 3.919-.55 7.634 2.61 7.609 6.766-.008 1.331-.001 2.662-.001 4.06zm.041 2.714v8.121h8.125v-8.121h-8.125zm10.912 10.914c0 1.591-.129 3.207.031 4.794.214 2.125 2.166 3.541 4.42 3.423 1.928-.102 3.695-1.912 3.76-3.85.074-2.252-1.379-4.145-3.529-4.34-1.549-.141-3.124-.027-4.682-.027zm-13.713.006c-1.548 0-3.142-.111-4.712.029-1.978.176-3.522 2.098-3.489 4.086.034 2.035 1.641 3.854 3.614 4.088 2.152.254 4.233-1.066 4.54-3.188.237-1.638.047-3.338.047-5.015zm.116-13.716c0-1.34-.012-2.691.002-4.042.025-2.498-2.384-4.531-4.848-4.061-1.939.371-3.415 2.023-3.471 3.994-.054 1.891 1.277 3.8 3.176 4.061 1.656.228 3.367.048 5.141.048zm13.61.117c1.341 0 2.692.013 4.043-.002 2.686-.031 4.566-2.384 4.026-5.022-.387-1.893-2.114-3.251-4.102-3.229-1.945.023-3.735 1.408-3.934 3.308-.165 1.606-.033 3.241-.033 4.945z"/></svg>